<?xml version="1.0" encoding="UTF-8" standalone="no"?>
<svg
   xmlns:dc="http://purl.org/dc/elements/1.1/"
   xmlns:cc="http://creativecommons.org/ns#"
   xmlns:rdf="http://www.w3.org/1999/02/22-rdf-syntax-ns#"
   xmlns:svg="http://www.w3.org/2000/svg"
   xmlns="http://www.w3.org/2000/svg"
   xmlns:sodipodi="http://sodipodi.sourceforge.net/DTD/sodipodi-0.dtd"
   xmlns:inkscape="http://www.inkscape.org/namespaces/inkscape"
   inkscape:version="1.0 (4035a4fb49, 2020-05-01)"
   sodipodi:docname="sun.svg"
   viewBox="0 0 752 1337.3333"
   height="1337.3333"
   width="752"
   id="svg10"
   version="1.1">
  <metadata
     id="metadata16">
    <rdf:RDF>
      <cc:Work
         rdf:about="">
        <dc:format>image/svg+xml</dc:format>
        <dc:type
           rdf:resource="http://purl.org/dc/dcmitype/StillImage" />
        <dc:title></dc:title>
      </cc:Work>
    </rdf:RDF>
  </metadata>
  <defs
     id="defs14" />
  <sodipodi:namedview
     inkscape:current-layer="g18"
     inkscape:window-maximized="1"
     inkscape:window-y="-8"
     inkscape:window-x="-8"
     inkscape:cy="668.66663"
     inkscape:cx="376"
     inkscape:zoom="0.50099704"
     showgrid="false"
     id="namedview12"
     inkscape:window-height="837"
     inkscape:window-width="1600"
     inkscape:pageshadow="2"
     inkscape:pageopacity="0"
     guidetolerance="10"
     gridtolerance="10"
     objecttolerance="10"
     borderopacity="1"
     bordercolor="#666666"
     pagecolor="#ffffff" />
  <g
     id="g18"
     inkscape:label="Image"
     inkscape:groupmode="layer">
    <path
       id="path22"
       d="m 372.6032,791.64871 c -0.39503,-1.0294 -0.54233,-6.92148 -0.32737,-13.09352 0.3823,-10.97689 0.46361,-11.22188 3.72417,-11.22188 3.32164,0 3.33333,0.0444 3.33333,12.66667 0,12.12813 -0.12773,12.68481 -3.00596,13.09352 -1.67993,0.23855 -3.32278,-0.3988 -3.72417,-1.44479 z m -59.66821,-15.1582 c -1.75884,-1.75884 -0.9308,-4.26354 4.55521,-13.77892 4.32968,-7.5097 6.06913,-9.43692 8.22891,-9.11712 1.50628,0.22303 2.93682,1.00894 3.179,1.74646 0.24216,0.73753 -2.11084,5.83224 -5.22891,11.32157 -5.254,9.24965 -8.4168,12.14544 -10.73421,9.82801 z m 118.6638,-4.0729 c -5.4633,-8.65932 -9.06934,-16.45027 -8.23719,-17.7967 0.43768,-0.70817 1.89199,-1.2876 3.2318,-1.2876 2.88333,0 13.82551,17.50674 13.14636,21.03328 -0.82569,4.2875 -4.80775,3.33418 -8.14097,-1.94898 z m -74.78804,-31.78032 c -20.54199,-5.64021 -38.39796,-20.53995 -47.53736,-39.66704 -11.70252,-24.49123 -10.25754,-48.35295 4.39865,-72.63693 3.12319,-5.17486 5.02039,-7 7.27635,-7 4.32302,0 3.94108,3.8817 -1.11983,11.38053 -6.13197,9.08587 -9.34255,18.6448 -10.15065,30.22187 -3.9309,56.31413 56.0562,91.60861 103.71781,61.02424 22.21127,-14.25294 34.03653,-45.10338 27.26044,-71.11856 -12.01071,-46.11223 -64.48384,-65.61635 -103.71781,-38.55163 -4.48492,3.09381 -5.2881,3.26523 -7.04899,1.50433 -2.93193,-2.93193 -1.30008,-5.44641 6.66907,-10.27621 12.06398,-7.31154 20.22972,-9.80196 34.56626,-10.54214 15.74991,-0.81316 24.55931,0.86872 37.99236,7.25349 24.16375,11.48509 41.50331,39.24181 41.50331,66.43741 0,32.75773 -23.91867,63.75043 -55.47948,71.88774 -9.87436,2.5459 -29.20748,2.58771 -38.33013,0.0829 z m -88.76228,-9.24557 c -2.27575,-2.74211 -1.13087,-3.97528 9.40128,-10.12639 9.79232,-5.71903 13.88358,-6.29513 13.88358,-1.955 0,1.84939 -2.90652,4.26232 -10,8.30181 -5.5,3.13206 -10.37653,5.70062 -10.83674,5.70791 -0.4602,0.007 -1.56186,-0.86045 -2.44812,-1.92833 z m 202.6182,-3.77958 c -7.09348,-4.03949 -10,-6.45242 -10,-8.30181 0,-1.43393 1.02742,-2.80503 2.28317,-3.04685 2.30187,-0.44331 20.19092,9.26753 21.76536,11.81502 0.83247,1.34698 -1.56989,5.26758 -3.21179,5.24155 -0.46021,-0.007 -5.33674,-2.57585 -10.83674,-5.70791 z M 251.13308,669.95892 c -1.46687,-3.82258 1.55056,-4.73816 14.31979,-4.34514 11.5295,0.35488 12.54713,0.60248 12.54713,3.05287 0,2.45859 -1.01619,2.69647 -13.02321,3.04856 -10.9512,0.32113 -13.15375,0.0417 -13.84371,-1.75629 z m 222.97032,0.87504 c -0.42829,-0.693 -0.40457,-2.235 0.0527,-3.42667 0.70252,-1.83073 2.82214,-2.1078 13.671,-1.78699 11.8241,0.34966 12.83956,0.59059 12.83956,3.04635 0,2.45659 -1.01567,2.69663 -12.89228,3.04699 -7.10842,0.20969 -13.24163,-0.18496 -13.67099,-0.87968 z M 277.52447,616.105 c -11.28079,-6.90702 -11.91706,-7.61719 -9.23095,-10.3033 2.01676,-2.01676 2.95689,-1.74045 12.60952,3.70596 7.51828,4.24211 10.43029,6.62138 10.43029,8.5221 0,4.31682 -4.68032,3.66445 -13.80886,-1.92476 z m 182.9822,3.29217 c -1.14403,-2.98131 0.12253,-4.15508 10.90905,-10.10933 7.90104,-4.36147 10.41403,-5.20239 11.88892,-3.97834 2.99147,2.48271 1.08305,4.82292 -8.647,10.60343 -9.73789,5.78519 -12.96327,6.57933 -14.15097,3.48424 z m -143.10979,-44.7791 c -5.84432,-9.83744 -6.4562,-13.95142 -2.07505,-13.95142 1.8748,0 4.26732,2.92195 8.4227,10.28651 5.82964,10.33184 6.17551,13.04683 1.66207,13.04683 -1.60027,0 -4.34827,-3.21879 -8.00972,-9.38192 z m 105.90752,8.00176 c -0.46915,-0.75908 1.75884,-6.00908 4.95107,-11.66667 4.15538,-7.36456 6.5479,-10.28651 8.4227,-10.28651 4.38115,0 3.76927,4.11398 -2.07505,13.95142 -5.35423,9.0125 -9.05448,11.63302 -11.29872,8.00176 z m -50.73709,-13.7313 c -0.37528,-0.97796 -0.50644,-6.82796 -0.29148,-13 0.3823,-10.97689 0.46361,-11.22188 3.72417,-11.22188 3.22335,0 3.34647,0.32944 3.73149,9.9843 0.5005,12.5507 -0.32136,16.0157 -3.79874,16.0157 -1.47571,0 -2.99016,-0.80016 -3.36544,-1.77812 z"
       style="fill:#000000;stroke-width:1.33333" />
       <animateTransform attributeType="xml" attributeName="transform" type="rotate" from="0" to="360" begin="0" dur="15s" repeatCount="indefinite" />
  </g>
</svg>
